<svg xmlns="http://www.w3.org/2000/svg" width="84.16" height="84.16" viewBox="0 0 84.16 84.16">
  <path id="icons8-cancel" d="M45.08,3A42.08,42.08,0,1,0,87.16,45.08,42.082,42.082,0,0,0,45.08,3Zm4.958,42.08L61.586,56.627a3.506,3.506,0,1,1-4.958,4.958c-.54-.537-11.547-11.547-11.547-11.547L33.533,61.586a3.506,3.506,0,1,1-4.958-4.958c.537-.54,11.547-11.547,11.547-11.547L28.574,33.533a3.506,3.506,0,0,1,4.958-4.958c.54.537,11.547,11.547,11.547,11.547L56.627,28.574a3.506,3.506,0,1,1,4.958,4.958C61.049,34.073,50.038,45.08,50.038,45.08Z" transform="translate(-3 -3)" fill="#f63f3f"/>
</svg>
