<svg xmlns="http://www.w3.org/2000/svg" width="477.866" height="477.858" viewBox="0 0 477.866 477.858"><defs><style>.a{fill:#fff;}</style></defs><g transform="translate(0 -0.004)"><path class="a" d="M472.184,4.347A17.326,17.326,0,0,0,458.923.1L151.723,34.23a17.066,17.066,0,0,0-15.189,16.964V355.34a98.75,98.75,0,0,0-51.2-14.012C38.281,341.329,0,371.946,0,409.6s38.281,68.267,85.333,68.267,85.333-30.6,85.333-68.267V151.889l273.067-30.413v199.68a98.755,98.755,0,0,0-51.2-13.961c-47.053,0-85.333,30.618-85.333,68.267s38.281,68.267,85.333,68.267,85.333-30.6,85.333-68.267V17.062A17.064,17.064,0,0,0,472.184,4.347Z"/></g></svg>