<?xml version="1.0" encoding="UTF-8" standalone="no"?>
<!DOCTYPE svg PUBLIC "-//W3C//DTD SVG 1.1//EN" "http://www.w3.org/Graphics/SVG/1.1/DTD/svg11.dtd">
<svg width="100%" height="100%" viewBox="0 0 236 79" version="1.1" xmlns="http://www.w3.org/2000/svg" xmlns:xlink="http://www.w3.org/1999/xlink" xml:space="preserve" xmlns:serif="http://www.serif.com/" style="fill-rule:evenodd;clip-rule:evenodd;stroke-linejoin:round;stroke-miterlimit:2;">
    <g transform="matrix(1,0,0,1,-4036,-7569)">
        <g transform="matrix(0.723827,0,0,0.585185,1114.63,3139.73)">
            <rect id="Artboard8" x="4036" y="7569" width="325" height="135" style="fill:none;"/>
            <g id="Artboard81" serif:id="Artboard8">
                <g transform="matrix(0.937799,0,0,1.15998,1868.72,-1452.36)">
                    <g transform="matrix(0.434635,0,0,0.434635,1407.7,4483.63)">
                        <path d="M2346.08,7752.68C2350.73,7752.68 2354.76,7753.46 2358.19,7755.01C2361.61,7756.56 2364.25,7758.76 2366.1,7761.61C2367.95,7764.46 2368.88,7767.83 2368.88,7771.73C2368.88,7775.58 2367.95,7778.95 2366.1,7781.82C2364.25,7784.7 2361.61,7786.9 2358.19,7788.42C2354.76,7789.95 2350.73,7790.71 2346.08,7790.71L2335.5,7790.71L2335.5,7805.18L2323.35,7805.18L2323.35,7752.68L2346.08,7752.68ZM2345.4,7780.81C2349.05,7780.81 2351.83,7780.02 2353.73,7778.45C2355.63,7776.87 2356.58,7774.63 2356.58,7771.73C2356.58,7768.78 2355.63,7766.52 2353.73,7764.95C2351.83,7763.37 2349.05,7762.58 2345.4,7762.58L2335.5,7762.58L2335.5,7780.81L2345.4,7780.81Z" style="fill:rgb(155,122,255);fill-rule:nonzero;"/>
                        <path d="M2418.08,7764.83L2418.08,7805.18L2406.98,7805.18L2406.98,7800.38C2405.43,7802.13 2403.58,7803.47 2401.43,7804.4C2399.28,7805.32 2396.95,7805.78 2394.45,7805.78C2389.15,7805.78 2384.95,7804.26 2381.85,7801.21C2378.75,7798.16 2377.2,7793.63 2377.2,7787.63L2377.2,7764.83L2388.9,7764.83L2388.9,7785.91C2388.9,7792.41 2391.63,7795.66 2397.08,7795.66C2399.88,7795.66 2402.13,7794.75 2403.83,7792.92C2405.53,7791.1 2406.38,7788.38 2406.38,7784.78L2406.38,7764.83L2418.08,7764.83Z" style="fill:rgb(155,122,255);fill-rule:nonzero;"/>
                        <path d="M2452.8,7764.23C2456.55,7764.23 2459.96,7765.1 2463.04,7766.82C2466.11,7768.55 2468.53,7770.97 2470.28,7774.1C2472.03,7777.22 2472.9,7780.86 2472.9,7785.01C2472.9,7789.16 2472.03,7792.8 2470.28,7795.92C2468.53,7799.05 2466.11,7801.47 2463.04,7803.2C2459.96,7804.92 2456.55,7805.78 2452.8,7805.78C2447.25,7805.78 2443.03,7804.03 2440.13,7800.53L2440.13,7805.18L2428.95,7805.18L2428.95,7749.53L2440.65,7749.53L2440.65,7769.11C2443.6,7765.86 2447.65,7764.23 2452.8,7764.23ZM2450.78,7796.18C2453.78,7796.18 2456.24,7795.17 2458.16,7793.15C2460.09,7791.12 2461.05,7788.41 2461.05,7785.01C2461.05,7781.61 2460.09,7778.9 2458.16,7776.87C2456.24,7774.85 2453.78,7773.83 2450.78,7773.83C2447.78,7773.83 2445.31,7774.85 2443.39,7776.87C2441.46,7778.9 2440.5,7781.61 2440.5,7785.01C2440.5,7788.41 2441.46,7791.12 2443.39,7793.15C2445.31,7795.17 2447.78,7796.18 2450.78,7796.18Z" style="fill:rgb(155,122,255);fill-rule:nonzero;"/>
                        <rect x="2480.7" y="7749.53" width="11.7" height="55.65" style="fill:rgb(155,122,255);fill-rule:nonzero;"/>
                        <path d="M2503.28,7764.83L2514.98,7764.83L2514.98,7805.18L2503.28,7805.18L2503.28,7764.83ZM2509.13,7759.21C2506.98,7759.21 2505.23,7758.58 2503.88,7757.33C2502.53,7756.08 2501.85,7754.53 2501.85,7752.68C2501.85,7750.83 2502.53,7749.28 2503.88,7748.03C2505.23,7746.78 2506.98,7746.16 2509.13,7746.16C2511.28,7746.16 2513.03,7746.76 2514.38,7747.96C2515.73,7749.16 2516.4,7750.66 2516.4,7752.46C2516.4,7754.41 2515.73,7756.02 2514.38,7757.3C2513.03,7758.57 2511.28,7759.21 2509.13,7759.21Z" style="fill:rgb(155,122,255);fill-rule:nonzero;"/>
                        <path d="M2545.35,7805.78C2541.05,7805.78 2537.19,7804.9 2533.76,7803.12C2530.34,7801.35 2527.66,7798.88 2525.74,7795.73C2523.81,7792.58 2522.85,7789.01 2522.85,7785.01C2522.85,7781.01 2523.81,7777.43 2525.74,7774.28C2527.66,7771.13 2530.34,7768.67 2533.76,7766.9C2537.19,7765.12 2541.05,7764.23 2545.35,7764.23C2549.6,7764.23 2553.31,7765.12 2556.49,7766.9C2559.66,7768.67 2561.98,7771.21 2563.43,7774.51L2554.35,7779.38C2552.25,7775.68 2549.23,7773.83 2545.28,7773.83C2542.23,7773.83 2539.7,7774.83 2537.7,7776.83C2535.7,7778.83 2534.7,7781.56 2534.7,7785.01C2534.7,7788.46 2535.7,7791.18 2537.7,7793.18C2539.7,7795.18 2542.23,7796.18 2545.28,7796.18C2549.28,7796.18 2552.3,7794.33 2554.35,7790.63L2563.43,7795.58C2561.98,7798.78 2559.66,7801.28 2556.49,7803.08C2553.31,7804.88 2549.6,7805.78 2545.35,7805.78Z" style="fill:rgb(155,122,255);fill-rule:nonzero;"/>
                        <path d="M2625.68,7805.18L2615.55,7790.56L2604.38,7790.56L2604.38,7805.18L2592.23,7805.18L2592.23,7752.68L2614.95,7752.68C2619.6,7752.68 2623.64,7753.46 2627.06,7755.01C2630.49,7756.56 2633.13,7758.76 2634.98,7761.61C2636.83,7764.46 2637.75,7767.83 2637.75,7771.73C2637.75,7775.63 2636.81,7779 2634.94,7781.82C2633.06,7784.65 2630.4,7786.81 2626.95,7788.31L2638.73,7805.18L2625.68,7805.18ZM2625.45,7771.73C2625.45,7768.78 2624.5,7766.52 2622.6,7764.95C2620.7,7763.37 2617.93,7762.58 2614.28,7762.58L2604.38,7762.58L2604.38,7780.88L2614.28,7780.88C2617.93,7780.88 2620.7,7780.08 2622.6,7778.48C2624.5,7776.88 2625.45,7774.63 2625.45,7771.73Z" style="fill:rgb(155,122,255);fill-rule:nonzero;"/>
                        <path d="M2665.73,7805.78C2661.48,7805.78 2657.66,7804.9 2654.29,7803.12C2650.91,7801.35 2648.28,7798.88 2646.38,7795.73C2644.48,7792.58 2643.53,7789.01 2643.53,7785.01C2643.53,7781.01 2644.48,7777.43 2646.38,7774.28C2648.28,7771.13 2650.91,7768.67 2654.29,7766.9C2657.66,7765.12 2661.48,7764.23 2665.73,7764.23C2669.98,7764.23 2673.78,7765.12 2677.13,7766.9C2680.48,7768.67 2683.1,7771.13 2685,7774.28C2686.9,7777.43 2687.85,7781.01 2687.85,7785.01C2687.85,7789.01 2686.9,7792.58 2685,7795.73C2683.1,7798.88 2680.48,7801.35 2677.13,7803.12C2673.78,7804.9 2669.98,7805.78 2665.73,7805.78ZM2665.73,7796.18C2668.73,7796.18 2671.19,7795.17 2673.11,7793.15C2675.04,7791.12 2676,7788.41 2676,7785.01C2676,7781.61 2675.04,7778.9 2673.11,7776.87C2671.19,7774.85 2668.73,7773.83 2665.73,7773.83C2662.73,7773.83 2660.25,7774.85 2658.3,7776.87C2656.35,7778.9 2655.38,7781.61 2655.38,7785.01C2655.38,7788.41 2656.35,7791.12 2658.3,7793.15C2660.25,7795.17 2662.73,7796.18 2665.73,7796.18Z" style="fill:rgb(155,122,255);fill-rule:nonzero;"/>
                        <path d="M2736.3,7764.83L2736.3,7805.18L2725.2,7805.18L2725.2,7800.38C2723.65,7802.13 2721.8,7803.47 2719.65,7804.4C2717.5,7805.32 2715.18,7805.78 2712.68,7805.78C2707.38,7805.78 2703.18,7804.26 2700.08,7801.21C2696.98,7798.16 2695.43,7793.63 2695.43,7787.63L2695.43,7764.83L2707.13,7764.83L2707.13,7785.91C2707.13,7792.41 2709.85,7795.66 2715.3,7795.66C2718.1,7795.66 2720.35,7794.75 2722.05,7792.92C2723.75,7791.1 2724.6,7788.38 2724.6,7784.78L2724.6,7764.83L2736.3,7764.83Z" style="fill:rgb(155,122,255);fill-rule:nonzero;"/>
                        <path d="M2771.7,7764.23C2776.7,7764.23 2780.74,7765.73 2783.81,7768.73C2786.89,7771.73 2788.43,7776.18 2788.43,7782.08L2788.43,7805.18L2776.73,7805.18L2776.73,7783.88C2776.73,7780.68 2776.03,7778.3 2774.63,7776.72C2773.23,7775.15 2771.2,7774.36 2768.55,7774.36C2765.6,7774.36 2763.25,7775.27 2761.5,7777.1C2759.75,7778.92 2758.88,7781.63 2758.88,7785.23L2758.88,7805.18L2747.18,7805.18L2747.18,7764.83L2758.35,7764.83L2758.35,7769.56C2759.9,7767.86 2761.83,7766.55 2764.13,7765.62C2766.43,7764.7 2768.95,7764.23 2771.7,7764.23Z" style="fill:rgb(155,122,255);fill-rule:nonzero;"/>
                        <path d="M2840.55,7749.53L2840.55,7805.18L2829.38,7805.18L2829.38,7800.53C2826.48,7804.03 2822.28,7805.78 2816.78,7805.78C2812.98,7805.78 2809.54,7804.93 2806.46,7803.23C2803.39,7801.53 2800.98,7799.11 2799.23,7795.96C2797.48,7792.81 2796.6,7789.16 2796.6,7785.01C2796.6,7780.86 2797.48,7777.21 2799.23,7774.06C2800.98,7770.91 2803.39,7768.48 2806.46,7766.78C2809.54,7765.08 2812.98,7764.23 2816.78,7764.23C2821.93,7764.23 2825.95,7765.86 2828.85,7769.11L2828.85,7749.53L2840.55,7749.53ZM2818.8,7796.18C2821.75,7796.18 2824.2,7795.17 2826.15,7793.15C2828.1,7791.12 2829.08,7788.41 2829.08,7785.01C2829.08,7781.61 2828.1,7778.9 2826.15,7776.87C2824.2,7774.85 2821.75,7773.83 2818.8,7773.83C2815.8,7773.83 2813.33,7774.85 2811.38,7776.87C2809.43,7778.9 2808.45,7781.61 2808.45,7785.01C2808.45,7788.41 2809.43,7791.12 2811.38,7793.15C2813.33,7795.17 2815.8,7796.18 2818.8,7796.18Z" style="fill:rgb(155,122,255);fill-rule:nonzero;"/>
                    </g>
                    <g transform="matrix(0.150289,0,0,0.150289,2282.27,7424.64)">
                        <path d="M360.987,2520.07C362.271,2517.5 363.582,2514.96 364.919,2512.45L364.92,2512.45C370.609,2501.78 376.752,2491.7 383.271,2482.32C389.863,2472.84 396.84,2464.07 404.103,2456.13L404.107,2456.13C433.454,2424.07 467.834,2405.69 501.487,2405.67L501.517,2405.67C535.165,2405.69 569.546,2424.07 598.893,2456.13C606.162,2464.07 613.136,2472.84 619.729,2482.32C626.248,2491.7 632.395,2501.78 638.084,2512.45L638.086,2512.46C652.864,2540.19 664.549,2571.93 671.652,2605.52L671.653,2605.52C675.506,2623.76 678.013,2642.54 678.938,2661.53C679.21,2667.09 679.345,2672.67 679.341,2678.25C679.285,2821.7 588.992,2888.39 501.502,2888.35C417.239,2888.39 330.38,2826.53 324.03,2693.83C332.672,2662.61 348.798,2633.18 372.366,2609.86C372.056,2611.23 371.755,2612.62 371.463,2614L371.461,2614.01C368.05,2630.13 365.832,2646.74 365.01,2663.53C364.771,2668.41 364.652,2673.32 364.656,2678.22L364.656,2678.23C364.699,2791.61 432.341,2847.39 501.489,2847.35L501.515,2847.35C570.66,2847.39 638.301,2791.6 638.344,2678.23L638.344,2678.22C638.348,2673.32 638.229,2668.41 637.99,2663.53L637.99,2663.53C637.172,2646.74 634.95,2630.13 631.542,2614C625.264,2584.31 614.967,2556.25 601.906,2531.74C596.995,2522.53 591.695,2513.82 586.068,2505.73L586.065,2505.72C580.553,2497.79 574.73,2490.45 568.652,2483.81C548.119,2461.38 525.045,2446.69 501.502,2446.66C477.957,2446.69 454.883,2461.37 434.35,2483.8C432.141,2486.22 429.964,2488.73 427.823,2491.32C403.082,2497.89 380.805,2507.7 360.987,2520.07Z" style="fill:white;"/>
                    </g>
                    <g transform="matrix(0.150289,0,0,0.150289,2282.27,7424.64)">
                        <path d="M685.981,2586.72C760.818,2677.79 770.341,2821.08 676.989,2917.59C676.91,2917.67 676.831,2917.75 676.751,2917.83L516.959,3077.62C513.105,3081.47 507.875,3083.64 502.424,3083.62C496.974,3083.61 491.752,3081.43 487.913,3077.56L308.893,2897.12C308.482,2896.71 308.089,2896.28 307.715,2895.83C202.383,2769.77 266.952,2500.2 502.465,2500.2C524.664,2500.2 545.705,2503.06 565.428,2508.34C567.356,2510.86 569.248,2513.45 571.103,2516.12L571.109,2516.13C576.339,2523.65 581.262,2531.74 585.826,2540.31C590.029,2548.19 593.925,2556.47 597.471,2565.07C570.014,2549.99 538.03,2541.2 502.465,2541.2C307.023,2541.2 251.811,2763.78 338.633,2868.89L502.522,3034.08C502.522,3034.08 647.637,2888.97 647.656,2888.95C700.608,2834.1 713.804,2761.14 697.1,2696.22C697.403,2690.36 697.559,2684.38 697.562,2678.26C697.566,2672.38 697.423,2666.5 697.137,2660.64C696.165,2640.68 693.532,2620.93 689.48,2601.76L689.479,2601.75C688.41,2596.7 687.243,2591.68 685.981,2586.72Z" style="fill:url(#_Linear1);"/>
                    </g>
                    <g transform="matrix(0.36019,0,0,0.36019,1380.08,7107.39)">
                        <path d="M2868.53,2025.84L2884.27,2025.84L2884.27,2000.38L2896.03,2000.38C2911.18,2000.38 2923.57,1988.53 2923.57,1974C2923.57,1959.43 2911.18,1947.53 2896.03,1947.53L2868.53,1947.53L2868.53,2025.84ZM2896.03,1984.84L2884.27,1984.79L2884.27,1963.12L2896.03,1963.12C2902.54,1963.12 2907.83,1967.93 2907.83,1973.86C2907.83,1979.93 2902.54,1984.88 2896.03,1984.84Z" style="fill:white;fill-rule:nonzero;"/>
                        <rect x="2932.41" y="1947.53" width="15.739" height="78.306" style="fill:white;fill-rule:nonzero;"/>
                        <path d="M3008.92,1947.34L3008.92,1991.2L2962.53,1946.07L2961.75,1946.07L2961.75,2025.93L2977.49,2025.93L2977.49,1982.07L3023.98,2027.29L3024.71,2027.29L3024.71,1947.34L3008.92,1947.34Z" style="fill:white;fill-rule:nonzero;"/>
                        <path d="M3075.86,2027.34C3087.71,2027.34 3096.12,2022.19 3103.01,2015.34L3093.98,2002.62C3088.78,2007.72 3082.56,2011.55 3075.37,2011.55C3063.28,2011.55 3050.84,2000.77 3050.84,1986.83C3050.84,1973.13 3062.84,1961.96 3075.42,1961.96C3082.18,1961.96 3088.59,1965.16 3093.93,1970.41L3103.01,1958.02C3094.81,1950.1 3085.77,1946.07 3075.57,1945.93C3053.51,1945.93 3034.91,1964.63 3034.91,1986.73C3034.91,2008.74 3053.27,2027.34 3075.86,2027.34Z" style="fill:white;fill-rule:nonzero;"/>
                        <path d="M3141.39,2027.54C3158.05,2027.54 3171.61,2014.61 3171.61,1996.88L3171.61,1947.53L3155.77,1947.53L3155.77,1996.84C3155.77,2005.34 3148.92,2011.6 3141.34,2011.6C3133.76,2011.6 3127.01,2005.38 3127.01,1996.84L3127.01,1947.53L3111.18,1947.53L3111.18,1996.88C3111.18,2014.61 3124.73,2027.54 3141.39,2027.54Z" style="fill:white;fill-rule:nonzero;"/>
                        <path d="M3221.25,1981.73C3223.14,1981.73 3228.63,1976.58 3228.63,1968.27C3228.63,1957.73 3219.79,1947.53 3205.9,1947.53L3184.53,1947.53L3184.53,2025.84L3214.11,2025.84C3230.24,2025.84 3238.54,2013.64 3238.54,2002.08C3238.54,1989.5 3228.78,1981.73 3221.25,1981.73ZM3206.87,1962.83C3210.51,1962.83 3213.96,1965.94 3213.96,1970.36C3213.96,1974.93 3210.32,1978.13 3206.58,1978.13L3200.22,1978.13L3200.22,1962.83L3206.87,1962.83ZM3212.65,2010.49L3200.22,2010.49L3200.22,1991.93L3212.6,1991.93C3220.08,1991.93 3223.19,1996.45 3223.19,2000.96C3223.19,2006.99 3217.75,2010.49 3212.65,2010.49Z" style="fill:white;fill-rule:nonzero;"/>
                        <path d="M3298.44,2025.84L3315.49,2025.84L3278.04,1945.59L3277.55,1945.59L3240.15,2025.84L3257.15,2025.84L3262.15,2014.9L3293.48,2014.9L3298.44,2025.84ZM3268.27,2001.5L3277.84,1980.56L3287.36,2001.5L3268.27,2001.5Z" style="fill:white;fill-rule:nonzero;"/>
                        <path d="M3363.14,1947.53L3308.83,1947.53L3308.83,1963.12L3328.12,1963.12L3328.12,2025.84L3343.91,2025.84L3343.91,1963.12L3363.14,1963.12L3363.14,1947.53Z" style="fill:white;fill-rule:nonzero;"/>
                        <path d="M3405.36,2027.34C3427.8,2027.34 3446.16,2009.08 3446.16,1986.78C3446.16,1964.29 3427.8,1945.93 3405.4,1945.93C3383.01,1945.93 3364.7,1964.29 3364.7,1986.78C3364.7,2009.08 3383.01,2027.34 3405.36,2027.34ZM3405.36,2011.41C3391.7,2011.41 3380.58,2000.28 3380.58,1986.68C3380.58,1972.98 3391.7,1961.81 3405.36,1961.81C3419.05,1961.81 3430.23,1972.98 3430.23,1986.68C3430.23,2000.28 3419.05,2011.41 3405.36,2011.41Z" style="fill:white;fill-rule:nonzero;"/>
                        <path d="M3516.3,2025.84L3494.06,1994.7C3502.46,1991.73 3508.53,1982.94 3508.53,1972.89C3508.53,1958.8 3496.53,1947.53 3481.91,1947.53L3456.36,1947.53L3456.41,2025.84L3472.15,2025.84L3472.15,1988.82L3497.07,2025.84L3516.3,2025.84ZM3472.1,1963.12L3482.2,1963.12C3487.5,1963.12 3492.31,1967.4 3492.31,1972.98C3492.31,1978.57 3487.55,1982.89 3482.2,1982.85L3472.1,1982.8L3472.1,1963.12Z" style="fill:white;fill-rule:nonzero;"/>
                    </g>
                </g>
            </g>
        </g>
    </g>
    <defs>
        <linearGradient id="_Linear1" x1="0" y1="0" x2="1" y2="0" gradientUnits="userSpaceOnUse" gradientTransform="matrix(-550.171,563.749,-563.749,-550.171,808.94,2550.23)"><stop offset="0" style="stop-color:rgb(144,75,255);stop-opacity:1"/><stop offset="0.47" style="stop-color:rgb(116,74,255);stop-opacity:1"/><stop offset="1" style="stop-color:rgb(45,73,255);stop-opacity:1"/></linearGradient>
    </defs>
</svg>
