<?xml version="1.0" encoding="UTF-8" standalone="no"?>
<!DOCTYPE svg PUBLIC "-//W3C//DTD SVG 1.1//EN" "http://www.w3.org/Graphics/SVG/1.1/DTD/svg11.dtd">
<svg width="100%" height="100%" viewBox="0 0 1003 1006" version="1.1" xmlns="http://www.w3.org/2000/svg" xmlns:xlink="http://www.w3.org/1999/xlink" xml:space="preserve" xmlns:serif="http://www.serif.com/" style="fill-rule:evenodd;clip-rule:evenodd;stroke-linejoin:round;stroke-miterlimit:2;">
    <g transform="matrix(1,0,0,1,-0.258423,0)">
        <g id="Artboard1" transform="matrix(1,0,0,1,3.25842,3)">
            <rect x="-3" y="-3" width="1003" height="1006" style="fill:none;"/>
            <g transform="matrix(1.11989,0,0,1.11989,-59.9506,-59.9471)">
                <g transform="matrix(1,0,0,1,-3,59.9675)">
                    <path d="M685.78,281.587C760.8,372.632 770.431,516.101 676.989,612.701C676.91,612.783 676.831,612.864 676.751,612.944L516.959,772.735C513.105,776.589 507.875,778.75 502.424,778.739C496.974,778.728 491.752,776.547 487.913,772.678L308.893,592.237C308.482,591.822 308.089,591.391 307.715,590.943C202.383,464.885 266.952,195.318 502.465,195.318C524.468,195.318 545.333,198.12 564.901,203.311C567.011,206.042 569.08,208.867 571.103,211.779C571.105,211.782 571.107,211.785 571.109,211.787C576.339,219.308 581.262,227.403 585.826,235.965C589.914,243.637 593.712,251.679 597.179,260.023C569.78,245.042 537.9,236.315 502.465,236.315C307.023,236.315 251.811,458.89 338.633,564.004L502.522,729.194L502.522,729.194C502.522,729.194 647.637,584.08 647.656,584.06C700.579,529.249 713.789,456.34 697.123,391.425C697.411,385.711 697.559,379.876 697.562,373.919C697.566,368.035 697.423,362.156 697.137,356.3C696.165,336.338 693.532,316.587 689.48,297.414C689.479,297.413 689.479,297.412 689.479,297.411C688.354,292.091 687.119,286.815 685.78,281.587Z" style="fill:url(#_Linear1);"/>
                </g>
                <g transform="matrix(1,0,0,1,-3,59.9675)">
                    <path d="M361.036,215.635C380.86,203.311 403.123,193.53 427.826,186.981C429.965,184.386 432.141,181.879 434.35,179.464C454.883,157.033 477.957,142.346 501.502,142.323C525.045,142.346 548.119,157.034 568.652,179.466C568.652,179.467 568.652,179.467 568.652,179.467C574.731,186.107 580.553,193.448 586.065,201.38C586.066,201.382 586.067,201.383 586.068,201.385C588.002,204.166 589.898,207.02 591.753,209.943L592.258,210.742C593.195,212.231 594.121,213.737 595.036,215.261C597.401,219.196 599.693,223.245 601.906,227.396C606.405,235.84 610.577,244.706 614.369,253.916C615.574,256.841 616.74,259.8 617.866,262.791L618.322,264.008C618.48,264.437 618.639,264.866 618.797,265.295L619.247,266.531C623.857,279.258 627.745,292.541 630.788,306.188L630.942,306.881C631.145,307.803 631.345,308.731 631.542,309.66C634.95,325.785 637.172,342.396 637.99,359.185C637.99,359.185 637.99,359.186 637.99,359.186C638.05,360.408 638.102,361.63 638.147,362.853C638.247,365.606 638.31,368.363 638.333,371.123L638.34,372.043L638.344,373.891C638.342,379.923 638.148,385.791 637.773,391.505L637.686,392.778C637.41,396.669 637.05,400.485 636.608,404.227C636.346,406.442 636.056,408.631 635.737,410.793C635.703,411.023 635.669,411.253 635.635,411.482L635.402,412.995C634.815,416.725 634.144,420.373 633.393,423.939L633.275,424.495C633.146,425.101 633.014,425.704 632.881,426.304C632.612,427.509 632.334,428.705 632.047,429.892L631.965,430.231C631.43,432.425 630.864,434.587 630.268,436.716C630.102,437.31 629.934,437.899 629.763,438.486C629.64,438.908 629.517,439.329 629.392,439.749C619.409,473.252 601.778,498.542 580.096,515.708C569.324,524.239 557.549,530.762 545.217,535.288C544.042,535.719 542.859,536.133 541.672,536.529C538.629,537.544 535.561,538.437 532.469,539.212L531.99,539.332C530.938,539.591 529.885,539.836 528.83,540.067L528.83,540.067C525.612,540.773 522.374,541.351 519.12,541.802L518.464,541.891L517.662,541.996C516.47,542.146 515.271,542.281 514.07,542.399L513.641,542.441L512.835,542.515C512.566,542.537 512.297,542.56 512.028,542.583L511.222,542.647C510.955,542.667 510.685,542.686 510.415,542.705C507.459,542.909 504.488,543.011 501.515,543.009C501.506,543.009 501.498,543.009 501.489,543.009C432.341,543.052 364.699,487.264 364.656,373.891C364.656,373.888 364.656,373.886 364.656,373.883C364.652,368.976 364.771,364.072 365.01,359.188C365.832,342.399 368.05,325.789 371.461,309.664C371.462,309.662 371.462,309.66 371.463,309.658C371.732,308.385 372.008,307.114 372.292,305.849C353.96,324.214 340.25,346.344 331.184,370.172C328.443,377.376 326.102,384.732 324.17,392.175C331.565,523.036 417.813,584.052 501.489,584.005L503.04,583.999L504.579,583.98L506.118,583.946L507.657,583.899L509.196,583.838L510.736,583.763L512.275,583.674L513.814,583.571L515.353,583.455L516.891,583.325L518.429,583.18L519.966,583.022L521.502,582.85L523.038,582.665L524.572,582.465L526.106,582.251L527.638,582.023L529.169,581.782L530.698,581.526L532.226,581.257L533.752,580.973L535.276,580.676L536.799,580.364L538.319,580.038L539.838,579.699L541.354,579.345L542.868,578.977L544.379,578.596L545.888,578.2L547.394,577.79L548.897,577.366L550.397,576.927L551.895,576.475L553.389,576.009L554.88,575.528L556.368,575.033L557.852,574.524L559.332,574.001L560.809,573.463L562.282,572.912L563.751,572.346L565.217,571.766L566.678,571.171L568.134,570.563L569.587,569.94L571.035,569.303L572.478,568.651L573.917,567.985L575.351,567.305L576.779,566.611L578.203,565.902L579.622,565.178L581.036,564.441L582.444,563.689L583.846,562.922L585.243,562.142L586.634,561.346L588.02,560.537L589.399,559.713L590.773,558.874L592.14,558.021L593.501,557.153L594.856,556.271L596.204,555.375L597.546,554.464L598.881,553.538L600.209,552.598L601.53,551.643L602.844,550.674L604.15,549.69L605.45,548.692L606.742,547.679L608.027,546.651L609.304,545.609L610.573,544.552L611.834,543.48L613.088,542.394L614.333,541.293L615.571,540.177L616.799,539.047L618.02,537.902L619.232,536.742L620.435,535.567L621.63,534.378L622.816,533.174L623.993,531.955L625.16,530.722L626.319,529.473L627.468,528.21L628.608,526.932L629.738,525.639L630.859,524.331L631.97,523.009L633.071,521.671L634.162,520.319L635.243,518.952L636.313,517.57L637.374,516.172L638.424,514.76L639.463,513.333L640.492,511.892L641.51,510.435L642.517,508.963L643.514,507.476L644.499,505.974L645.473,504.457L646.435,502.925L647.386,501.378L648.326,499.816L649.254,498.239L650.17,496.647L651.074,495.04L651.966,493.417L652.846,491.78L653.714,490.127L654.57,488.46L655.413,486.777L656.243,485.079L657.061,483.366L657.866,481.637L658.658,479.894L659.438,478.135L660.204,476.361L660.957,474.572L661.451,473.37L661.939,472.162L662.422,470.947L662.898,469.726L663.369,468.497L663.833,467.262L664.291,466.02L664.743,464.771L665.189,463.515L665.629,462.253L666.062,460.984L666.489,459.707L666.91,458.425L667.324,457.135L667.732,455.838L668.133,454.535L668.529,453.225L668.917,451.908L669.299,450.584L669.674,449.253L670.043,447.915L670.406,446.571L670.761,445.22L671.11,443.861L671.452,442.496L671.787,441.124L672.116,439.746L672.438,438.36L672.752,436.968L673.06,435.568L673.361,434.162L673.656,432.749L673.943,431.329L674.223,429.902L674.496,428.468L674.761,427.027L675.02,425.579L675.272,424.125L675.516,422.663L675.753,421.195L675.983,419.72L676.206,418.237L676.421,416.748L676.629,415.252L676.829,413.749L677.023,412.239L677.208,410.722L677.386,409.198L677.557,407.668L677.72,406.13L677.875,404.585L678.023,403.034L678.163,401.475L678.296,399.909L678.42,398.337L678.537,396.757L678.647,395.171L678.748,393.577L678.841,391.977L678.927,390.369L679.005,388.755L679.074,387.133L679.136,385.505L679.19,383.869L679.235,382.227L679.273,380.578L679.302,378.921L679.323,377.258L679.336,375.587L679.341,373.909C679.345,368.371 679.212,362.836 678.945,357.324L678.938,357.188C678.43,346.759 677.445,336.391 676.021,326.143C674.853,317.731 673.389,309.4 671.653,301.182L671.543,300.666C664.43,267.263 652.789,235.709 638.086,208.116C638.086,208.115 638.085,208.113 638.084,208.112C635.884,203.985 633.616,199.946 631.284,196.004C630.224,194.21 629.15,192.436 628.064,190.683L627.484,189.75L627.174,189.255C625.455,186.515 623.704,183.825 621.925,181.188C621.197,180.109 620.465,179.041 619.729,177.981C618.416,176.093 617.088,174.232 615.746,172.402L615,171.39C614.103,170.177 613.199,168.979 612.29,167.793L611.545,166.827C610.638,165.657 609.726,164.501 608.808,163.358C608.407,162.859 608.004,162.361 607.6,161.866L606.941,161.063C606.581,160.626 606.221,160.191 605.859,159.758C604.825,158.519 603.782,157.296 602.733,156.09L602.119,155.387L601.605,154.802L601.184,154.328C600.423,153.47 599.66,152.623 598.893,151.786C569.507,119.682 536.173,101.35 502.48,101.326L502.48,101.332L501.487,101.326C467.834,101.35 433.454,119.725 404.107,151.786C404.106,151.787 404.105,151.789 404.103,151.79C396.84,159.729 389.863,168.497 383.271,177.981C376.752,187.356 370.609,197.44 364.92,208.112C364.919,208.113 364.919,208.113 364.919,208.114C363.599,210.591 362.303,213.099 361.036,215.635Z" style="fill:white;"/>
                </g>
            </g>
        </g>
    </g>
    <defs>
        <linearGradient id="_Linear1" x1="0" y1="0" x2="1" y2="0" gradientUnits="userSpaceOnUse" gradientTransform="matrix(-668.794,250.271,-250.271,-668.794,904.113,528.468)"><stop offset="0" style="stop-color:rgb(144,75,255);stop-opacity:1"/><stop offset="1" style="stop-color:rgb(45,73,255);stop-opacity:1"/></linearGradient>
    </defs>
</svg>
