<svg xmlns="http://www.w3.org/2000/svg" xmlns:xlink="http://www.w3.org/1999/xlink" width="135.222" height="184.837" viewBox="0 0 135.222 184.837"><defs><style>.a,.c{fill:#fff;}.b,.c{fill-rule:evenodd;}.b{fill:url(#a);}</style><linearGradient id="a" x1="0.716" y1="0.297" x2="0.302" y2="0.525" gradientUnits="objectBoundingBox"><stop offset="0" stop-color="#904bff"/><stop offset="1" stop-color="#2d49ff"/></linearGradient></defs><g transform="translate(0 0)"><g transform="translate(0 167.731)"><path class="a" d="M0,723.851H3.284v-5.314H5.739a5.52,5.52,0,1,0,0-11.031H0v16.345Zm5.739-8.561-2.455-.01v-4.52H5.739a2.273,2.273,0,1,1,0,4.53Z" transform="translate(0 -707.1)"/><rect class="a" width="3.284" height="16.345" transform="translate(13.335 0.406)"/><path class="a" d="M96.381,706.417v9.156l-9.684-9.42h-.162v16.67h3.284v-9.156l9.7,9.44h.152v-16.69Z" transform="translate(-67.074 -706.052)"/><path class="a" d="M162.992,723.012a7.728,7.728,0,0,0,5.668-2.5l-1.886-2.656a5.642,5.642,0,0,1-3.884,1.866,5.178,5.178,0,0,1,.01-10.355,5.581,5.581,0,0,1,3.864,1.765l1.9-2.585a8.209,8.209,0,0,0-5.729-2.525,8.5,8.5,0,1,0,.061,16.994Z" transform="translate(-119.714 -705.947)"/><path class="a" d="M231.548,724.206a6.251,6.251,0,0,0,6.307-6.4v-10.3h-3.3V717.8a3,3,0,1,1-6,0V707.506h-3.3v10.3A6.251,6.251,0,0,0,231.548,724.206Z" transform="translate(-174.589 -707.1)"/><path class="a" d="M301,714.645c.395,0,1.54-1.075,1.54-2.81a4.5,4.5,0,0,0-4.745-4.329h-4.461v16.345h6.176a4.883,4.883,0,0,0,5.1-4.958A4.071,4.071,0,0,0,301,714.645Zm-3-3.946a1.531,1.531,0,0,1,1.481,1.572,1.593,1.593,0,0,1-1.542,1.623h-1.329v-3.2Zm1.207,9.949h-2.6v-3.875h2.586c1.562,0,2.211.943,2.211,1.887A2.089,2.089,0,0,1,299.2,720.648Z" transform="translate(-227.368 -707.1)"/><path class="a" d="M357.132,722.453h3.559L352.873,705.7h-.1l-7.808,16.751h3.549l1.044-2.282h6.54Zm-6.3-5.079,2-4.37,1.988,4.37Z" transform="translate(-267.389 -705.702)"/><path class="a" d="M420.062,707.506H408.726v3.254h4.026v13.091h3.294V710.76h4.016Z" transform="translate(-316.813 -707.1)"/><path class="a" d="M469.071,723.012a8.5,8.5,0,1,0-8.487-8.467A8.518,8.518,0,0,0,469.071,723.012Zm0-3.325a5.177,5.177,0,1,1,5.193-5.162A5.179,5.179,0,0,1,469.071,719.687Z" transform="translate(-357.009 -705.947)"/><path class="a" d="M558.173,723.851l-4.643-6.5a4.788,4.788,0,0,0,3.021-4.553,5.428,5.428,0,0,0-5.557-5.292h-5.337l.01,16.345h3.287v-7.727l5.2,7.727Zm-9.229-13.091h2.11a2.059,2.059,0,1,1,0,4.117l-2.11-.01Z" transform="translate(-422.951 -707.1)"/></g><g transform="translate(12.933 0)"><path class="b" d="M153.738,113.631c16.906,20.517,19.076,52.848-1.981,74.617l-.054.055-36.009,36.009a4.619,4.619,0,0,1-6.546-.013L68.807,183.636q-.139-.14-.265-.291C44.8,154.937,59.355,94.19,112.428,94.19a54.725,54.725,0,0,1,14.07,1.8q.713.923,1.4,1.908v0a54.236,54.236,0,0,1,3.316,5.448c.921,1.729,1.777,3.541,2.558,5.422a44.092,44.092,0,0,0-21.344-5.343c-44.043,0-56.485,50.157-36.919,73.845L112.441,214.5h0l32.706-32.706c11.926-12.352,14.9-28.782,11.148-43.41q.1-1.931.1-3.945,0-1.989-.1-3.97a84.066,84.066,0,0,0-1.726-13.27h0q-.38-1.8-.834-3.566Z" transform="translate(-57.511 -73.009)"/><path class="c" d="M131.357,25.759A55.16,55.16,0,0,1,146.408,19.3q.723-.877,1.47-1.694c4.627-5.055,9.827-8.365,15.133-8.37s10.505,3.315,15.132,8.37h0a47.262,47.262,0,0,1,3.924,4.938h0q.654.94,1.281,1.929l.114.18q.317.5.626,1.018.8,1.33,1.548,2.735c1.014,1.9,1.954,3.9,2.808,5.976q.407.989.788,2l.1.274.107.29.1.278a72.783,72.783,0,0,1,2.6,8.937l.035.156q.069.312.135.626a70.72,70.72,0,0,1,1.453,11.16h0q.02.413.035.826.034.93.042,1.864l0,.207v.417q0,2.039-.129,3.969l-.02.287q-.093,1.315-.243,2.58-.088.749-.2,1.479-.011.078-.023.155l-.052.341q-.2,1.261-.453,2.466l-.027.125q-.044.2-.089.408-.091.407-.188.808l-.018.076q-.181.742-.383,1.461-.056.2-.114.4-.042.143-.084.284a33.6,33.6,0,0,1-11.109,17.117,28.42,28.42,0,0,1-7.86,4.412q-.4.145-.8.28-1.028.343-2.074.6l-.108.027q-.356.088-.712.166h0q-1.088.238-2.188.391l-.148.02-.181.024q-.4.051-.809.091l-.1.009-.182.016-.182.016-.182.014-.182.013q-1,.069-2.005.069h-.006c-15.583.01-30.826-12.562-30.835-38.111v0q0-1.659.08-3.312a70.723,70.723,0,0,1,1.454-11.16h0q.091-.43.187-.858a41.178,41.178,0,0,0-9.264,14.5,47.621,47.621,0,0,0-1.58,4.958c1.667,29.49,21.1,43.24,39.959,43.229h.349l.347,0,.347-.008.347-.011.347-.014.347-.017.347-.02.347-.023.347-.026.347-.029.347-.032.346-.036.346-.039.346-.042.346-.045.346-.048.345-.051.345-.054.345-.058.344-.061.344-.064.344-.067.343-.07.342-.073.342-.076.342-.08.341-.083.34-.086.34-.089.34-.092.339-.1.338-.1.337-.1.337-.105.336-.108.335-.112.335-.115.333-.118.333-.121.332-.124.331-.128.33-.131.329-.134.328-.137.327-.141.326-.143.325-.147.324-.15.323-.153.322-.157.321-.16.32-.163.318-.166.317-.17.316-.173.315-.176.313-.179.312-.182.311-.186.309-.189.308-.192.307-.2.305-.2.3-.2.3-.205.3-.209.3-.212.3-.215.3-.218.295-.222.293-.225.291-.228.289-.231.288-.235.286-.238.284-.242.282-.245.281-.248.279-.251.277-.255.275-.258.273-.261.271-.265.269-.268.267-.271.265-.275.263-.278.261-.281.259-.285.257-.288.255-.291.253-.295.25-.3.248-.3.246-.3.244-.308.241-.311.239-.315.237-.318.234-.322.232-.325.229-.328.227-.332.224-.335.222-.338.219-.342.217-.345.214-.349.212-.352.209-.356.206-.359.2-.362.2-.366.2-.369.2-.372.193-.376.19-.379.187-.383.184-.386.181-.389.179-.393.176-.4.173-.4.17-.4.112-.271.11-.272.109-.274.107-.275.106-.277.1-.278.1-.28.1-.281.1-.283.1-.284.1-.286.1-.288.095-.289.093-.291.092-.292.09-.294.089-.3.087-.3.086-.3.085-.3.083-.3.082-.3.08-.3.079-.306.077-.308.076-.309.074-.311.072-.312.071-.314.069-.316.068-.317.066-.318.065-.32.063-.322.062-.323.06-.325.058-.326.057-.328.055-.329.054-.331.052-.332.05-.334.049-.336.047-.337.045-.339.044-.34.042-.342.04-.343.038-.345.037-.347.035-.348.034-.35.032-.351.03-.353.028-.354.026-.356.025-.358.023-.359.021-.361.019-.362.018-.364.016-.365.014-.367.012-.369.01-.37.009-.372.007-.373,0-.375,0-.376v-.378q0-1.872-.089-3.737v-.031c-.115-2.35-.337-4.687-.658-7q-.395-2.844-.984-5.625l-.025-.116a80.186,80.186,0,0,0-7.539-20.856h0q-.744-1.4-1.533-2.729-.358-.606-.725-1.2l-.131-.21-.07-.112q-.581-.926-1.183-1.818-.246-.364-.495-.723-.444-.638-.9-1.257l-.168-.228q-.3-.41-.611-.81l-.168-.218q-.307-.4-.617-.782l-.272-.336-.148-.181-.244-.294q-.35-.419-.7-.827l-.138-.158-.116-.132-.095-.107q-.257-.29-.516-.573C178.336,4.136,170.824.005,163.231,0h-.224c-7.584.005-15.331,4.146-21.945,11.371h0a56.612,56.612,0,0,0-4.694,5.9,67.646,67.646,0,0,0-4.136,6.79h0q-.446.837-.875,1.695Z" transform="translate(-108.311 0)"/></g></g></svg>