<svg xmlns="http://www.w3.org/2000/svg" width="23.999" height="21.003" viewBox="0 0 23.999 21.003"><defs><style>.a{fill:#fff;}</style></defs><path class="a" d="M.415,11.2l5.869,2.925A.752.752,0,0,0,7,14.1l5.224-3.037-3.162,2.8a.751.751,0,0,0-.253.562V21.25a.751.751,0,0,0,1.35.451l2.537-3.373L18.966,21.9a.75.75,0,0,0,1.106-.5L23.985,1.9a.75.75,0,0,0-1.008-.846L.477,9.826A.751.751,0,0,0,.415,11.2Zm21.83-8.249L18.806,20.084,12.861,16.7a.752.752,0,0,0-.971.2l-1.585,2.107V14.762l8.551-7.576a.75.75,0,0,0-.874-1.21L6.592,12.6,2.6,10.609Z" transform="translate(-0.001 -0.997)"/></svg>