<svg xmlns="http://www.w3.org/2000/svg" width="127.429" height="114.036" viewBox="0 0 127.429 114.036"><defs><style>.a{fill:#fff;}</style></defs><g transform="translate(0 -26.656)"><path class="a" d="M114.872,42.524A17.227,17.227,0,0,0,97.721,26.656H17.208A17.228,17.228,0,0,0,0,43.864v79.619a17.228,17.228,0,0,0,17.208,17.208h93.012a17.228,17.228,0,0,0,17.208-17.208v-64.4a17.236,17.236,0,0,0-12.557-16.564ZM17.208,34.695H97.721a9.184,9.184,0,0,1,8.951,7.185H17.208a17.1,17.1,0,0,0-9.169,2.657v-.673A9.18,9.18,0,0,1,17.208,34.695Zm93.012,97.958H17.208a9.18,9.18,0,0,1-9.169-9.169v-64.4a9.18,9.18,0,0,1,9.169-9.169h93.012a9.18,9.18,0,0,1,9.169,9.169V73.116H93.759a18.42,18.42,0,0,0,0,36.84h25.63v13.528a9.18,9.18,0,0,1-9.169,9.169Zm9.169-30.736H93.759a10.381,10.381,0,0,1,0-20.762h25.63Z"/><circle class="a" cx="4.185" cy="4.185" r="4.185" transform="translate(91.067 87.656)"/></g></svg>